<svg enable-background="new" width="50mm" height="50mm" viewBox="0 0 256 256" xmlns="http://www.w3.org/2000/svg" xmlns:xlink="http://www.w3.org/1999/xlink">
  <clipPath id="a">
    <use height="100%" width="100%" xlink:href="#c"/>
  </clipPath>
  <radialGradient id="b" r="90%" cx="0%" cy="40%" fx="40%" fy="50%" gradientUnits="userSpaceOnUse">
    <stop offset=".5" stop-color="#000" stop-opacity="0"/>
    <stop offset=".6" stop-color="#000" stop-opacity=".1"/>
    <stop offset="1" stop-color="#000" stop-opacity=".7"/>
  </radialGradient>
  <path id="c" d="m146.9483 20.377c22.4947 1.2536 52.8864 15.2255 66.1471 28.5689s17.8089 17.0972 23.3472 28.2236c10.2338 16.5902 16.5294 35.691 16.0328 55.3223.7703 25.0667-7.3912 49.9808-22.4321 69.9778-7.0229 13.2091-21.7437 22.7613-33.7061 30.7515-22.0452 11.8518-40.0667 14.3783-59.8411 14.9401s-43.7448-5.196-56.8651-14.1886c-13.1203-8.9925-26.7166-15.3292-33.1723-29.2763-14.6504-17.9799-24.3559-41.1375-21.6063-64.6558-1.5476-15.0918 1.4868-29.6587 5.3573-44.0232 4.0216-11.3365 9.4532-22.3499 15.9535-32.4576 9.7416-12.3595 23.4872-20.6869 36.1482-29.6245 22.6903-9.9837 42.1422-14.8118 64.6369-13.5582z" fill="#90b0ff"/>
  <path d="m240.1074 164.6215c-.313.8446-.2618 1.3265-.1989 1.9254.3094.4204.9977.5921 1.4065.2172.5327-.6028.8896-1.4002.8216-2.2168.0577-.8831-.3312-1.8349-1.0238-3.1615-.5754 1.0204-.3833 2.9776-1.0055 3.2358zm-118.9669-70.3974c-1.4093.5803-1.5587 1.4845-1.9248 2.3693.1077.7069 1.1016.7642 1.1458 1.491.154.4657-1.227.9093-1.6391 1.3777.666 1.2882.0606 3.3525.0751 3.8707.7997.3395 2.4641.343 2.8003-.0996.1594-1.3679.5353-1.7512.8127-2.5108.1377-1.057-.4615-2.0712-.7936-3.0538 0 0 1.3521-3.4531-.4763-3.4445zm22.921-28.513v-.0001c-3.677-.2293-7.7236.3195-9.8965 1.3436-3.4038 1.4256-6.3516 1.2928-9.4742-.1341-1.4559-.0628-1.052-1.1663-.4359-1.2901 1.3121.0223 7.7682 1.785 6.4511-1.3856 2.0008-.1803 4.4091-.6133 5.46-2.547.9664-.8465-.1866-2.9048 1.1331-3.557 1.0197.366 3.174 1.6195 3.2569.049-.2253-.7504 1.4481-3.2138-.4543-3.7661-1.3266-.5408-2.6844-.0224-1.9693-3.5734.6377-2.5875 3.7338-3.9465 5.6425-2.3059 1.2421 2.1411.627 4.6467-.224 5.2345-.3754 1.3813 1.1628 1.8859 1.8566 2.0758 3.0952-1.0581 8.0187.3218 11.0998-1.3872 1.4124.1966.0541 2.1835-.2483 1.8783-1.3608.3126-4.9797.0927-6.3515.0791-1.7821.178-1.4618 2.7906.7354 3.1796.192 3.2109-3.481.435-4.6511.2793-3.1568.7392-.6059 4.1764-1.9302 5.8276zm56.2552 22.9601 3.1238-.2897c.5378 1.2956 1.223 1.7635.8398 2.649-1.1251.464-2.1127.6076-3.0337 1.1237-1.0847.6272-.787 1.7512.2293 2.8226 2.1414.4224 3.0722 4.2948 3.2437 5.8983.3737-2.0263 5.5122-.5544.2204 1.0472.5076 1.7412 1.8338 3.1967 1.9472 5.0557-.0572.9969.5655 2.2938-.2604 2.9917-1.3409.796-2.4039.9206-3.6957.3263-1.0234-.3504-3.8199-1.2863-3.6324-2.5019-1.2362-1.6994-.8136-4.1515 1.527-6.2554-1.6877.7194-2.0472-1.6432-3.7373-3.3177-1.6929-1.3531-1.1475-3.0026-1.5476-4.3391-.3336-1.1464-.8385-1.9223-.1221-2.8617 1.5031-1.4955 2.7917-2.1564 4.898-2.3489zm-41.8224 6.5737c.9477-.9297 3.6638-3.9074 3.7563-5.7533.494-1.0961 1.1299-2.4938 2.5306-2.3834 1.0581.0337 4.0414-.3245 3.9467 1.3823.1035.7099-.5862.4413-1.2218 1.6633 2.0391-.1246 1.5954 2.099 1.4026 2.9191 1.172.4693 2.1595-.5076 3.1077-.9721 3.3725-3.3859.2154-3.3893.8643-4.7872 1.3116-.0282 4.3813-1.3073 4.9878-.2957-.1077 1.1639-1.6336 3.8233-.374 4.8503.8689 1.1074 3.1976.1502 3.8533 1.4707 2.0187 2.1067 1.1372 1.8731 3.7481 3.265.2869.3443.0195 2.2896-1.0946 2.5301-1.1087.9351-3.3298.9044-4.8085.5293-2.8165-.3303-2.9938-.1547-3.5892-1.0251-1.0899-1.1305-1.7483-.7925-5.3207-1.7666-2.4686.0657-2.6471.9052-5.3959 1.8616-1.0382.2768-2.0243.2507-3.0749-.1053-1.4542-.5998-3.4138-2.5796-3.318-3.3831zm-64.8857-27.6044c-1.3801.5524-3.5552-.3184-4.8118.3903-.583 1.0079-.4797 1.8812-2.3417 2.0678-1.4157.6477-.8336 2.0167-.4314 3.2323-.0252.9977-1.5837 1.3622-1.2243 2.6731 1.2223.5942 3.4682.5028 4.5-.4326 1.0155-.8494 2.7215-.3889 3.4992-1.6241.2948-1.659.0731-3.4419.9023-4.9779.1728-.2966.3361-1.4022-.0923-1.3289zm93.1054-23.8945c-.5957-1.2515-2.9922-3.91-4.9813-3.1567-1.7392-.1077.9824 3.2093.9824 3.2093-2.0628.4746-4.6144 1.1889-4.1456-1.3325-6.4715-3.7681-17.9012-8.9115-23.887-9.6388-4.495-.7739-4.4268.1664-7.9838.5465-3.0225.4559-7.081.3734-9.3845 2.9702-3.6292 1.0541-7.2442 3.1705-8.8441 6.7389-2.9176 2.4742-8.7966 5.067-13.4519 7.1867-5.5496 6.4901 2.5794 13.9836 10.0642 6.5346.0514.909.3291 1.3544-.1829 2.4982-10.9285 2.4519-2.933 7.5252-4.6405 9.2536-4.0652.6019-4.2464 1.2436-6.568 1.8859-4.6433 4.5181-4.34 5.4495-6.1858 5.3488-1.6576 4.4244-4.6841 2.4603-7.0547 3.5576-.4408.9105.0482 1.7593-.9702 2.1284-1.0601-1.1709-5.2055-.0849-5.58 1.5108.0698.8711 2.1 2.1096 3.6691 1.7062 3.5016 2.0187 2.9063 7.7512 1.3674 8.9919-7.071.3323-8.6198.5143-12.5346-.0503-3.8863.9676-.531 15.0811-.9237 15.5428 3.3625.4345 4.3346 1.1272 6.2046.8534 1.9461-.1454 6.9428-.3516 8.7551-2.6773 2.9662-2.2912 3.4334-6.3585 4.4324-7.7824.4541 1.0794 1.2615 2.4477 2.5767 2.8268 2.6798-3.918 1.2016-11.7824 7.5908-7.5723 3.1629-2.6396 5.1079-2.5667 6.3797-3.3063 1.4 2.4926 4.381 6.8129 10.009 7.9037 8.735 7.3647-3.5453 3.8166-4.5307 6.616.9945 1.192 4.5888 3.1737 6.3459 3.0232.9552-.0678-.615-2.675 2.1615-3.21 1.905-.5912 3.1799-2.9466 1.2369-4.9252-.3901-.3972 2.9301.8969 3.7704.2317.4111-.3524-14.2854-10.2101-11.5997-13.0687 3.9082 5.1476 12.7086 6.386 13.1471 12.827-.0769 3.7067 4.1795 7.6037 6.7054 9.0026 6.5762-4.5189-2.925-9.5222 3.5479-9.7893 2.2636-2.4242 5.1388 2.2524 4.0703 5.2486.8133 1.7137 1.7377 4.5553 6.7851 4.8868 3.7619-1.5803 8.7038.4674 11.0657-.2566.3129 1.8229 2.0513 2.6938.5083 4.6675l-3.45 6.5456c-5.4202-2.1351-7.7806 2.3731-26.5578-4.5093-1.1131 1.0513-2.5297 2.656-1.7698 6.3678-2.3707-2.2652-14.525-6.8486-19.4591-7.559.0349-2.3598 3.2188-3.9669 1.5357-7.417-6.2048-.5043-12.734-.0772-18.5586.5834-3.0933 1.7106-11.9405 2.1481-16.9249 5.4879s-6.6611 5.6956-6.6404 10.5643c-6.2498 4.7337-10.8878 8.6471-12.9782 17.2742 2.5157 9.0849 1.4406 10.0475-.0946 13.9171 1.2833 7.5584 10.2738 16.8477 17.4224 21.1409 12.2298 1.5304 17.6415-1.2099 25.5457-2.3704 0 0-.2349 2.1811 1.2018 4.0701 2.3604.4786 5.3182-.2144 7.6833.7755-.7787 4.3052-1.2834 9.9085-1.2834 9.9085 6.7771 4.5235 9.2386 19.4575 5.7883 26.0554.3779 7.9443 7.2511 21.4787 14.6277 24.9971 8.0191.1637 13.9585-1.1938 21.8793-2.2831 5.1149-2.4662 6.0866-8.6744 9.3414-12.9777 2.5294-5.8374 3.369-9.1054 8.5532-13.2186 1.631-4.845 1.1177-12.3193.6441-18.1066 9.4403-9.3312 10.123-9.7677 14.7129-16.1347 4.0342-3.7746 6.2387-9.0538 6.7542-16.328-9.4716.7097-13.9089 6.5744-14.0373-1.0976-6.297-10.9909-16.7382-25.1693-16.4072-31.0837.3409-.5326.5904-.8311 1.4233-.3956 3.112 4.4065 5.1705 6.7119 6.8766 10.2562-.3617 5.1514 3.6462 7.2368 6.9123 13.8226.9128 2.0603-.496 3.4071 2.8118 8.0353 5.6077-.681 30.8975-14.13 28.1479-20.6977-1.3217-1.2069-4.8241-5.0217-6.6764-6.6877-1.3392.3655-2.6857 2.0722-4.5552 3.2079-2.3102-1.6355-1.4755-2.2103-3.6686-4.0288-6.5644-5.4433-4.1609-6.2277-2.2734-7.2562 1.5923.6838 5.5519 10.1804 10.1687 6.3517 3.0995 5.868 13.1293 3.2078 16.6827 3.7147.6103 7.0976 3.8608 8.8027 6.719 7.7816-.4931 4.4426.865 14.9772 3.0131 21.4192 4.6272-3.8042 3.1663-7.2215 5.1974-13.1747 4.719-5.5334 1.2103-5.7277 8.9518-9.1761 1.7293-15.3033-.4349-29.4001-4.7302-42.9721-3.2766-10.1941-12.8134-27.1746-17.7175-33.3992-4.913-6.2359-11.7254-12.365-18.099-18.8009-9.1678.175-13.923-6.2442-24.6404-3.5335zm-83.4416 33.8376c1.6629.1224 5.976-3.1585 4.1515-5.3552-3.1236-4.3775-9.6365-8.2506-5.4247-9.4764-.6245-2.2591-5.3778-.5911-2.5359-3.1413-3.1172-.5928-3.9938-.1157-4.9474 1.4266-1.5685 2.537-.7173 7.4011.6063 7.8043.8083.1885 1.5436.0232 2.9324-.3103-1.6531 1.3891-1.3631 5.1172-3.9427 5.9253.223 1.275.614 3.2538-1.4567 4.7401 5.3286-1.9654 1.9245 1.4093 4.7929 1.3456.9632-.1538.7637-2.0177 1.1439-2.3331zm90.7596 125.7075c-3.3692 1.8931-3.1623 5.344-7.139 6.0902-4.3969 3.3218-2.9872 3.8435-3.5183 7.1788-2.7741 2.0046-2.8419 6.0758-.8828 7.7088 4.0849.1469 5.5167-4.0403 7.4298-6.7977 1.4218-2.3885 2.9217-6.0164 4.2203-8.2144.5739-1.6199 1.1256-3.2191-.1099-5.9659z" fill="#88ee66"/>
  <rect clip-path="url(#a)" fill="url(#b)" height="256" width="256"/>
  <path d="m25.5427 117.4557c-2.7819-6.8211-12.9124-19.9222-15.8864-28.6526s-5.848-16.4454-6.0554-26.2831c1.1389-8.1006 4.9227-20.1766 15.5438-27.8539 10.621-7.6774 18.4587-10.2008 31.4306-11.0808 9.3976-.6376 14.1257-.0363 24.9003 3.8615 10.769 3.8957 22.808 5.0188 26.0528 10.3985s-1.0601 12.6933-5.3186 15.7586-19.3266-4.4577-27.6955-7.0888c-8.3688-2.6311-15.6111-5.7587-23.6334-4.3995-8.0223 1.3593-14.6923 4.8211-18.7241 12.1802-4.0318 7.3592-.8282 15.134 1.5887 22.4423.9894 1.3047 4.4185 9.7951 5.9624 10.3214-4.2509 9.4217-5.6312 16.8509-8.1652 30.3961z" fill="#930ed5"/>
  <path d="m92.629 36.0614c-1.0875-.2725-2.495 1.1332-3.4741 2.597-.9791 1.4637.3889 2.4509 1.7431 2.4656s1.8436.1045 2.6806-.4336c.8369-.5382 1.7662-.5496 1.8972-1.827s-1.2523-2.3962-2.8468-2.802z" stroke="#440066"/>
</svg>
